<?xml version="1.0" encoding="UTF-8" standalone="no"?>
<svg
   xmlns:dc="http://purl.org/dc/elements/1.1/"
   xmlns:cc="http://creativecommons.org/ns#"
   xmlns:rdf="http://www.w3.org/1999/02/22-rdf-syntax-ns#"
   xmlns:svg="http://www.w3.org/2000/svg"
   xmlns="http://www.w3.org/2000/svg"
   xmlns:xlink="http://www.w3.org/1999/xlink"
   xmlns:sodipodi="http://sodipodi.sourceforge.net/DTD/sodipodi-0.dtd"
   xmlns:inkscape="http://www.inkscape.org/namespaces/inkscape"
   width="135.7364mm"
   height="57.016254mm"
   viewBox="0 0 135.7364 57.016254"
   version="1.1"
   id="svg312"
   inkscape:version="1.0.2 (e86c8708, 2021-01-15)"
   sodipodi:docname="enemy.svg">
  <defs
     id="defs306">
    <inkscape:perspective
       sodipodi:type="inkscape:persp3d"
       inkscape:vp_x="0 : -91.483748 : 1"
       inkscape:vp_y="0 : 999.99996 : 0"
       inkscape:vp_z="210 : -91.483748 : 1"
       inkscape:persp3d-origin="105 : -140.98375 : 1"
       id="perspective1996" />
    <linearGradient
       inkscape:collect="always"
       id="linearGradient1349">
      <stop
         style="stop-color:#f6962f;stop-opacity:1"
         offset="0"
         id="stop1345" />
      <stop
         style="stop-color:#f58d30;stop-opacity:1"
         offset="1"
         id="stop1347" />
    </linearGradient>
    <linearGradient
       inkscape:collect="always"
       id="linearGradient1145">
      <stop
         style="stop-color:#f6962f;stop-opacity:1"
         offset="0"
         id="stop1141" />
      <stop
         style="stop-color:#ea4835;stop-opacity:1"
         offset="1"
         id="stop1143" />
    </linearGradient>
    <linearGradient
       inkscape:collect="always"
       xlink:href="#linearGradient1145"
       id="linearGradient1147"
       x1="91.710144"
       y1="107.44148"
       x2="92.167397"
       y2="130.42667"
       gradientUnits="userSpaceOnUse"
       gradientTransform="translate(24.532768,5.5029891)" />
    <linearGradient
       inkscape:collect="always"
       xlink:href="#linearGradient1349"
       id="linearGradient1351"
       x1="107.15625"
       y1="106.09792"
       x2="107.15625"
       y2="111.59232"
       gradientUnits="userSpaceOnUse"
       gradientTransform="matrix(0.97327262,0,0,1.1213865,11.112865,-9.9402353)" />
  </defs>
  <sodipodi:namedview
     id="base"
     pagecolor="#ffffff"
     bordercolor="#666666"
     borderopacity="1.0"
     inkscape:pageopacity="0.0"
     inkscape:pageshadow="2"
     inkscape:zoom="0.5"
     inkscape:cx="285.95639"
     inkscape:cy="-51.255788"
     inkscape:document-units="mm"
     inkscape:current-layer="layer1"
     inkscape:document-rotation="0"
     showgrid="false"
     inkscape:window-width="1440"
     inkscape:window-height="855"
     inkscape:window-x="1854"
     inkscape:window-y="152"
     inkscape:window-maximized="0" />
  <metadata
     id="metadata309">
    <rdf:RDF>
      <cc:Work
         rdf:about="">
        <dc:format>image/svg+xml</dc:format>
        <dc:type
           rdf:resource="http://purl.org/dc/dcmitype/StillImage" />
        <dc:title></dc:title>
      </cc:Work>
    </rdf:RDF>
  </metadata>
  <g
     inkscape:label="レイヤー 1"
     inkscape:groupmode="layer"
     id="layer1"
     transform="translate(-32.058071,-80.493295)">
    <g
       id="g2024"
       transform="translate(-13.758333,-23.01875)"
       inkscape:export-xdpi="96"
       inkscape:export-ydpi="96">
      <g
         id="g1399"
         transform="translate(3.0043143,5.0113823)">
        <g
           id="g1377"
           transform="translate(1.587501,-0.70418983)">
          <g
             id="g1331"
             transform="matrix(0.99156269,-0.07265012,0.12962803,0.555722,-3.322745,57.300803)"
             style="stroke:none">
            <path
               id="path1219"
               style="opacity:0.999;fill:#eb4c35;fill-opacity:1;stroke:none;stroke-width:0;stroke-miterlimit:4;stroke-dasharray:none;stroke-opacity:1"
               d="m 36.767918,101.84497 c 0.905018,5.6982 2.861442,12.7253 2.861442,12.7253 -2.810302,0.6924 -6.142988,-3.3031 -7.443763,-8.92418 -1.300777,-5.62109 1.894307,-22.390284 4.782525,-22.308574 0,0 -1.343343,11.309982 -0.200204,18.507454 z"
               sodipodi:nodetypes="sssss" />
            <path
               id="path1224"
               style="opacity:0.999;fill:#eb4c35;fill-opacity:1;stroke:none;stroke-width:0;stroke-miterlimit:4;stroke-dasharray:none;stroke-opacity:1"
               d="m 40.77459,105.8504 c -0.297136,4.71851 -1.14523,8.71987 -1.14523,8.71987 2.376519,0.13369 4.465471,-3.58717 4.665805,-8.31075 0.200332,-4.72358 -1.618046,-9.296403 -3.940335,-8.794844 0,0 0.659751,4.574674 0.41976,8.385724 z"
               sodipodi:nodetypes="sssss" />
          </g>
          <path
             style="fill:#eb4c35;fill-opacity:1;stroke:none;stroke-width:0.0829042;stroke-linecap:butt;stroke-linejoin:miter;stroke-miterlimit:4;stroke-dasharray:none;stroke-opacity:1"
             d="m 68.583493,125.34733 -8.514512,2.50468 -9.239985,-14.69009 c 0,0 0.04584,1.28485 -0.85862,1.80891 -1.145407,0.66367 -2.240447,-1.42131 -2.240447,-1.42131 0,0 0.746545,7.00167 2.902757,9.98688 2.351632,3.25577 9.57029,8.24903 9.57029,8.24903 l 11.488094,-3.28377 z"
             id="path1327"
             sodipodi:nodetypes="cccscsccc" />
        </g>
        <g
           id="g1387"
           transform="matrix(-1,0,0,1,219.77309,-0.70418983)">
          <g
             id="g1383"
             transform="matrix(0.99156269,-0.07265012,0.12962803,0.555722,-3.322745,57.300803)"
             style="stroke:none">
            <path
               id="path1379"
               style="opacity:0.999;fill:#eb4c35;fill-opacity:1;stroke:none;stroke-width:0;stroke-miterlimit:4;stroke-dasharray:none;stroke-opacity:1"
               d="m 36.767918,101.84497 c 0.905018,5.6982 2.861442,12.7253 2.861442,12.7253 -2.810302,0.6924 -6.142988,-3.3031 -7.443763,-8.92418 -1.300777,-5.62109 1.894307,-22.390284 4.782525,-22.308574 0,0 -1.343343,11.309982 -0.200204,18.507454 z"
               sodipodi:nodetypes="sssss" />
            <path
               id="path1381"
               style="opacity:0.999;fill:#eb4c35;fill-opacity:1;stroke:none;stroke-width:0;stroke-miterlimit:4;stroke-dasharray:none;stroke-opacity:1"
               d="m 40.77459,105.8504 c -0.297136,4.71851 -1.14523,8.71987 -1.14523,8.71987 2.376519,0.13369 4.465471,-3.58717 4.665805,-8.31075 0.200332,-4.72358 -1.618046,-9.296403 -3.940335,-8.794844 0,0 0.659751,4.574674 0.41976,8.385724 z"
               sodipodi:nodetypes="sssss" />
          </g>
          <path
             style="fill:#eb4c35;fill-opacity:1;stroke:none;stroke-width:0.0829042;stroke-linecap:butt;stroke-linejoin:miter;stroke-miterlimit:4;stroke-dasharray:none;stroke-opacity:1"
             d="m 68.583493,125.34733 -8.514512,2.50468 -9.239985,-14.69009 c 0,0 0.04584,1.28485 -0.85862,1.80891 -1.145407,0.66367 -2.240447,-1.42131 -2.240447,-1.42131 0,0 0.746545,7.00167 2.902757,9.98688 2.351632,3.25577 9.57029,8.24903 9.57029,8.24903 l 11.488094,-3.28377 z"
             id="path1385"
             sodipodi:nodetypes="cccscsccc" />
        </g>
      </g>
      <g
         id="g1994"
         transform="matrix(1.0001313,0,0,0.81013997,-1.7366675,25.543904)">
        <path
           style="opacity:0.999;fill:#ea4835;fill-opacity:1;stroke:#000000;stroke-width:0.1;stroke-linecap:butt;stroke-linejoin:miter;stroke-miterlimit:4;stroke-dasharray:none;stroke-opacity:1"
           d="m 152.3247,131.8165 9.39785,10.58333 -14.52396,21.16667 7.68916,-19.65476 -5.55328,-6.04762 z"
           id="path1243" />
        <path
           style="opacity:0.999;fill:#ea4835;fill-opacity:1;stroke:#000000;stroke-width:0.1;stroke-linecap:butt;stroke-linejoin:miter;stroke-miterlimit:4;stroke-dasharray:none;stroke-opacity:1"
           d="m 144.43156,133.32841 9.39785,10.58333 -14.52395,21.16667 7.68915,-19.65476 -5.55328,-6.04762 z"
           id="path1245" />
        <path
           style="opacity:0.999;fill:#ea4835;fill-opacity:1;stroke:#000000;stroke-width:0.1;stroke-linecap:butt;stroke-linejoin:miter;stroke-miterlimit:4;stroke-dasharray:none;stroke-opacity:1"
           d="m 136.53842,134.84032 9.39786,10.58333 -14.52396,21.16667 7.68915,-19.65476 -5.55327,-6.04762 z"
           id="path1247" />
        <path
           style="opacity:0.999;fill:#ea4835;fill-opacity:1;stroke:#000000;stroke-width:0.1;stroke-linecap:butt;stroke-linejoin:miter;stroke-miterlimit:4;stroke-dasharray:none;stroke-opacity:1"
           d="m 78.487552,131.8165 -9.397853,10.58333 14.523956,21.16667 -7.689153,-19.65476 5.553277,-6.04762 z"
           id="path1251" />
        <path
           style="opacity:0.999;fill:#ea4835;fill-opacity:1;stroke:#000000;stroke-width:0.1;stroke-linecap:butt;stroke-linejoin:miter;stroke-miterlimit:4;stroke-dasharray:none;stroke-opacity:1"
           d="m 86.380689,133.32841 -9.397853,10.58333 14.523956,21.16667 -7.689153,-19.65476 5.553277,-6.04762 z"
           id="path1253" />
        <path
           style="opacity:0.999;fill:#ea4835;fill-opacity:1;stroke:#000000;stroke-width:0.1;stroke-linecap:butt;stroke-linejoin:miter;stroke-miterlimit:4;stroke-dasharray:none;stroke-opacity:1"
           d="m 94.273826,134.84032 -9.397853,10.58333 14.523956,21.16667 -7.689153,-19.65476 5.553277,-6.04762 z"
           id="path1255" />
      </g>
      <g
         id="g1986"
         transform="translate(-1.7215171,-0.26457776)">
        <path
           style="fill:url(#linearGradient1147);fill-opacity:1;stroke:#000000;stroke-width:0.264583px;stroke-linecap:butt;stroke-linejoin:miter;stroke-opacity:1"
           d="m 68.364971,129.24878 c 0,0 14.909807,11.1956 23.519717,14.43255 7.444267,2.79872 15.566732,4.00905 23.519722,4.00905 7.95298,0 16.07545,-1.21033 23.51971,-4.00905 8.60991,-3.23695 23.51972,-14.43255 23.51972,-14.43255 0,0 -18.23545,-20.04522 -47.03944,-20.04522 -29.873055,0 -47.039429,20.04522 -47.039429,20.04522 z"
           id="path316"
           sodipodi:nodetypes="csascsc" />
        <g
           id="g1977">
          <ellipse
             style="opacity:0.999;fill:#000000;fill-opacity:1;stroke-width:0.0631008;stroke-opacity:0.910714"
             id="path1149"
             cx="104.40938"
             cy="138.43033"
             rx="3.7729707"
             ry="4.8790321" />
          <ellipse
             style="opacity:0.999;fill:#ffffff;fill-opacity:1;stroke-width:0.130618;stroke-opacity:0.910714"
             id="path1151"
             cx="106.56699"
             cy="137.68591"
             rx="1.4836882"
             ry="1.9200672" />
          <ellipse
             style="opacity:0.999;fill:#000000;fill-opacity:1;stroke-width:0.0631008;stroke-opacity:0.910714"
             id="ellipse1157"
             cx="-126.40287"
             cy="138.43033"
             rx="3.7729707"
             ry="4.8790321"
             transform="scale(-1,1)" />
          <ellipse
             style="opacity:0.999;fill:#ffffff;fill-opacity:1;stroke-width:0.130618;stroke-opacity:0.910714"
             id="ellipse1159"
             cx="-124.24526"
             cy="137.68591"
             rx="1.4836882"
             ry="1.9200672"
             transform="scale(-1,1)" />
        </g>
        <path
           style="fill:url(#linearGradient1351);fill-opacity:1;stroke:#000000;stroke-width:0.276411px;stroke-linecap:butt;stroke-linejoin:miter;stroke-opacity:1"
           d="m 89.138914,115.11888 2.575117,-5.78566 6.18028,2.52196 3.347649,-5.48896 5.40776,3.11535 4.12019,-5.48894 4.6352,5.0439 4.89271,-5.0439 3.86269,5.48894 5.66526,-3.11535 3.09014,5.48896 6.43779,-2.52196 2.31761,5.78566"
           id="path1343"
           sodipodi:nodetypes="ccccccccccccc" />
      </g>
    </g>
  </g>
</svg>
